<?xml version="1.0" encoding="UTF-8"?>
<svg width="70px" height="70px" viewBox="0 0 70 70" version="1.1" xmlns="http://www.w3.org/2000/svg" xmlns:xlink="http://www.w3.org/1999/xlink">
    <!-- Generator: Sketch 52.2 (67145) - http://www.bohemiancoding.com/sketch -->
    <title>edit-document</title>
    <desc>Created with Sketch.</desc>
    <g id="Page-1" stroke="none" stroke-width="1" fill="none" fill-rule="evenodd">
        <g id="Доп-услуги" transform="translate(-378.000000, -256.000000)" fill="#4A90E2" fill-rule="nonzero">
            <g id="Group-5" transform="translate(284.000000, 230.000000)">
                <g id="edit-document" transform="translate(94.000000, 26.000000)">
                    <path d="M4.375,61.25 L4.375,8.75 C4.375,6.33609375 6.34046875,4.375 8.75,4.375 L52.5,4.375 C54.9139062,4.375 56.875,6.33609375 56.875,8.75 L56.875,29.2825781 C56.875,30.490701 57.8543771,31.4700781 59.0625,31.4700781 L59.0625,31.4700781 C60.2706229,31.4700781 61.25,30.490701 61.25,29.2825781 L61.25,8.75 C61.25,3.9178125 57.3321875,0 52.5,0 L8.75,0 C3.9178125,0 0,3.9178125 0,8.75 L0,61.25 C0,66.0821875 3.9178125,70 8.75,70 L30.625,70 C31.8331229,70 32.8125,69.0206229 32.8125,67.8125 L32.8125,67.8125 C32.8125,66.6043771 31.8331229,65.625 30.625,65.625 L8.75,65.625 C6.34046875,65.625 4.375,63.6639063 4.375,61.25 Z M45.9375,13.125 L15.3125,13.125 C14.1043771,13.125 13.125,14.1043771 13.125,15.3125 L13.125,15.3125 C13.125,16.5206229 14.1043771,17.5 15.3125,17.5 L45.9375,17.5 C47.1456229,17.5 48.125,16.5206229 48.125,15.3125 L48.125,15.3125 C48.125,14.1043771 47.1456229,13.125 45.9375,13.125 Z M45.9375,21.875 L15.3125,21.875 C14.1043771,21.875 13.125,22.8543771 13.125,24.0625 L13.125,24.0625 C13.125,25.2706229 14.1043771,26.25 15.3125,26.25 L45.9375,26.25 C47.1456229,26.25 48.125,25.2706229 48.125,24.0625 L48.125,24.0625 C48.125,22.8543771 47.1456229,21.875 45.9375,21.875 Z M45.9375,30.625 L15.3125,30.625 C14.1043771,30.625 13.125,31.6043771 13.125,32.8125 L13.125,32.8125 C13.125,34.0206229 14.1043771,35 15.3125,35 L45.9375,35 C47.1456229,35 48.125,34.0206229 48.125,32.8125 L48.125,32.8125 C48.125,31.6043771 47.1456229,30.625 45.9375,30.625 Z M15.3125,43.75 L28.4375,43.75 C29.6456229,43.75 30.625,42.7706229 30.625,41.5625 L30.625,41.5625 C30.625,40.3543771 29.6456229,39.375 28.4375,39.375 L15.3125,39.375 C14.1043771,39.375 13.125,40.3543771 13.125,41.5625 L13.125,41.5625 C13.125,42.7706229 14.1043771,43.75 15.3125,43.75 Z M68.718125,39.375 L65.625,36.281875 C64.7702344,35.4271094 63.6513281,35 62.531875,35 C61.4124219,35 60.2929688,35.4271094 59.43875,36.281875 L40.656875,55.06375 C39.8021094,55.9179688 37.1875,59.2227344 37.1875,60.3421875 L35,70 L44.655625,67.8125 C44.655625,67.8125 49.0820312,65.1978906 49.93625,64.343125 L68.718125,45.56125 C70.4271094,43.8528125 70.4271094,41.0817969 68.718125,39.375 Z M48.3940625,62.7921875 C48.1463281,63.0273438 47.289375,63.6059375 46.2426562,64.2725781 L40.5753906,58.6053125 C41.1567187,57.8085156 41.8036719,57.0073437 42.2034375,56.6103125 L56.3450781,42.4686719 L62.531875,48.6554687 L48.3940625,62.7921875 Z" id="Shape"></path>
                </g>
            </g>
        </g>
    </g>
</svg>